<svg xmlns="http://www.w3.org/2000/svg" viewBox="0 0 290.7 57.8">
    <g class="logo" fill="#ffffff">
        <path class="logo-tail" d="M52.8,52.1c0,0-6.8-1.7-8.9-9.6L42,43.1l-5.6,3.2l-2.5,2C34,48.2,42.1,54.9,52.8,52.1z"/>
        <path class="logo-arrow" d="M27.5,27.5v13.5l0,7.3h0v1.6c0,0,6.1,0.2,11.3-3.1c0,0,0.7-0.4,1.8-1.1c2-1.4,5.2-4.3,7.2-8.6 c0.1-0.2,0.2-0.4,0.2-0.4L27.5,27.5z"/>
        <path class="logo-circle" fill="#6ebe3b" d="M27.5,13.7c7.6,0,13.7,6.2,13.7,13.7c0,1.2-0.2,2.3-0.5,3.4l8,3.6c0.7-2.2,1.1-4.6,1.1-7 C49.9,15.1,39.9,5,27.5,5C15.1,5,5,15.1,5,27.5c0,11.6,8.8,21.2,20.2,22.3V41c-6.5-1.1-11.5-6.7-11.5-13.5 C13.7,19.9,19.9,13.7,27.5,13.7z"/>
    </g>
    <g class="type" fill="#ffffff">
        <path d="M62.7,37.6c2.6,2.5,6.2,4,10.1,4c3.6,0,6.9-1.2,9.4-3.3c2.3-2,4-4.7,4.6-8.1h-6c-0.5,1.8-1.6,3.3-2.9,4.3 c-1.5,1.1-3.2,1.6-5,1.6h0l-0.1,0c-2.1,0-4.2-0.7-5.8-2.2c-1.6-1.5-2.6-3.7-2.6-6.5c0-2.9,1-5.1,2.6-6.6c1.6-1.5,3.7-2.2,5.8-2.2 l0.1,0c1.7,0,3.5,0.5,4.9,1.6c1.3,0.9,2.4,2.3,3,4.2h6c-0.6-3.3-2.2-6-4.6-8c-2.5-2.1-5.8-3.3-9.4-3.3c-7.9,0-14.3,6.2-14.3,14.3 C58.5,31.5,60.1,35,62.7,37.6z"/>
        <rect x="88.8" y="13.5" width="5.4" height="27.6"/>
        <path d="M101.7,12.2c-0.6-0.5-1.5-0.8-2.3-0.8l-0.1,0c-0.8,0-1.6,0.3-2.2,0.8c-0.6,0.5-1,1.3-1,2.4 c0,1.1,0.4,1.8,1,2.3c0.6,0.5,1.5,0.8,2.3,0.8l0.1,0c0.8,0,1.6-0.3,2.2-0.8c0.6-0.5,1-1.2,1-2.3C102.7,13.5,102.3,12.7,101.7,12.2 z"/>
        <rect x="96.7" y="20.1" width="5.4" height="21.1"/>
        <path d="M121.6,22.1c-1.9-1.5-4.4-2.3-6.8-2.3c-2.7,0-5.4,0.9-7.4,2.7c-2,1.8-3.3,4.5-3.3,8.1 c0,3.6,1.3,6.3,3.3,8.1c2,1.8,4.7,2.7,7.4,2.7c2.4,0,4.9-0.8,6.8-2.3c1.8-1.4,3.1-3.5,3.6-6.3h-5.3c-0.4,1.1-1.1,2-2,2.6 c-0.9,0.7-2.1,1-3.2,1c-1.4,0-2.7-0.5-3.8-1.5c-1-1-1.7-2.5-1.7-4.4c0-1.9,0.7-3.4,1.7-4.4c1-1,2.4-1.5,3.8-1.5 c1.1,0,2.2,0.3,3.2,1c0.8,0.6,1.5,1.5,2,2.6h5.3C124.7,25.6,123.3,23.6,121.6,22.1z"/>
        <polygon points="145.8,41.2 137.7,30.6 145.1,20.1 139.2,20.1 133.2,28.6 132.2,30.1 132.2,28.3 132.2,27.6 132.2,13.6 126.9,13.6 126.9,41.2 132.2,41.2 132.2,33.7 132.2,31.4 139.4,41.2"/>
        <polygon points="172,41.2 172,13.6 167.4,13.6 159.5,25.2 151.7,13.6 147,13.6 147,41.2 152.8,41.2 152.8,25.6 157.9,33.1 161.2,33.1 166.2,25.7 166.2,41.2"/>
        <path d="M192.4,22.6c-2-1.8-4.7-2.7-7.5-2.7l-0.1,0c-2.8,0-5.5,0.9-7.5,2.7c-2,1.8-3.4,4.5-3.4,8.1 c0,3.6,1.3,6.3,3.3,8.1c2,1.8,4.7,2.7,7.4,2.8h0l0.2,0c2.2,0,4.4-0.6,6.2-1.7c1.6-1,3-2.5,3.8-4.4h-6c-1.1,1-2.5,1.5-4,1.5h0h0 c-1.1,0-2.2-0.3-3.1-0.9c-0.9-0.6-1.7-1.4-2.2-2.6l-0.3-0.8h16.3c0.1-0.6,0.2-1.3,0.2-2C195.7,27,194.4,24.4,192.4,22.6z M179.6,28.7l0.2-0.7c0.4-1.2,1-2.1,1.9-2.7c0.9-0.6,1.9-0.9,3-0.9c1.1,0,2.2,0.3,3.1,0.9c0.9,0.6,1.6,1.5,1.9,2.8l0.2,0.7H179.6z"/>
        <path d="M215.8,22.5c-2-1.8-4.7-2.7-7.5-2.7l-0.1,0c-2.8,0-5.5,0.9-7.5,2.7c-2,1.8-3.4,4.5-3.4,8.1 c0,3.6,1.3,6.3,3.3,8.1c2,1.8,4.7,2.7,7.4,2.8h0l0.2,0c2.2,0,4.4-0.6,6.2-1.7c1.6-1,3-2.5,3.8-4.4h-6c-1.1,1-2.5,1.5-4,1.5h0h0 c-1.1,0-2.2-0.3-3.1-0.9c-0.9-0.6-1.7-1.4-2.2-2.6l-0.3-0.8H219c0.1-0.6,0.2-1.3,0.2-2C219.1,26.9,217.8,24.3,215.8,22.5z M203,28.6l0.2-0.7c0.4-1.2,1-2.1,1.9-2.7c0.9-0.6,1.9-0.9,3-0.9c1.1,0,2.2,0.3,3.1,0.9c0.9,0.6,1.6,1.5,1.9,2.8l0.2,0.7H203z"/>
        <path d="M224.1,39.9c1.2,1.2,3,1.7,5.4,1.7l0.1,0h0c0.9,0,1.9-0.1,2.9-0.2l-0.2-4.2c-0.4,0.1-0.9,0.1-1.3,0.1 c-0.9,0-1.7-0.2-2.4-0.7c-0.7-0.5-1.2-1.4-1.2-2.5v-9.3h4.6v-4.4h-4.6v-4.8l-5.3,0.5v4.3h-2.9v4.4h2.9v9.3 C222.2,36.9,222.9,38.7,224.1,39.9z"/>
        <rect x="234.1" y="20.1" width="5.4" height="21.1"/>
        <path d="M239.1,12.2c-0.6-0.5-1.5-0.8-2.3-0.8l-0.1,0c-0.8,0-1.6,0.3-2.2,0.8c-0.6,0.5-1,1.3-1,2.4 c0,1.1,0.4,1.8,1,2.3c0.6,0.5,1.5,0.8,2.3,0.8l0.1,0c0.8,0,1.6-0.3,2.2-0.8c0.6-0.5,1-1.2,1-2.3C240.1,13.5,239.7,12.8,239.1,12.2 z"/>
        <path d="M252.6,24.6c1,0,2.1,0.4,2.8,1.2c0.8,0.8,1.2,2.1,1.2,3.7v11.6h5.4V29.5v-0.2c0-2-0.2-3.9-0.8-5.4 c-0.6-1.5-1.5-2.7-3-3.4c-1-0.5-2.1-0.8-3.6-0.8c-1.1,0-2.3,0.1-3.4,0.5c-1.1,0.4-2,0.9-2.7,1.8l-1,1.3v-3.3h-5.4v21.1h5.7V29.7 c0-1.6,0.6-2.9,1.6-3.7C250.3,25.1,251.5,24.6,252.6,24.6z"/>
        <path d="M267.7,49.2c1.9,1.4,4.6,2.2,7.2,2.2c2.7,0,5.4-0.8,7.4-2.6c2-1.8,3.3-4.4,3.3-8.4V20.1h-5.3v3.3l-1-1.3 c-0.7-0.9-1.5-1.4-2.4-1.8c-0.9-0.3-1.9-0.5-2.9-0.5h0l-0.1,0c-3.4,0-5.8,1.2-7.5,3.2c-1.7,2-2.5,4.7-2.5,7.8c0,3,0.9,5.5,2.5,7.3 c1.7,1.8,4.2,2.9,7.6,2.9c1.1,0,2.1-0.1,3-0.5c0.9-0.3,1.7-0.9,2.4-1.6l1-1.2v2.7l0,0c-0.1,2.1-0.8,3.5-1.9,4.5 c-1.1,0.9-2.4,1.3-3.7,1.3l-0.1,0c-0.8,0-1.6-0.2-2.3-0.5c-0.7-0.3-1.3-0.7-1.7-1.3c-0.2-0.2-0.3-0.4-0.3-0.7h-5.7 C264.7,46.1,265.9,47.9,267.7,49.2z M278.6,34.8c-1.1,0.9-2.4,1.3-3.8,1.4h0h0c-1.3,0-2.7-0.4-3.8-1.3c-1.1-0.9-1.8-2.2-1.8-3.9 l0,0l0-0.1c0-1.4,0.4-2.9,1.4-4c0.9-1.1,2.4-1.9,4.2-1.9c1.5,0,3,0.7,4,1.8c1,1.1,1.6,2.6,1.6,4.2 C280.3,32.5,279.6,33.9,278.6,34.8z"/>
    </g>
</svg>